name C:\Users\u0101727\Documents\MyRepositories\upper-imu-dc\Results\main_tracking\Case_52\kinematics_filtered.mot
datacolumns 10
datarows 18
range 1.37000000 1.54000000
endheader 
time	clav_prot	clav_elev	scapula_abduction	scapula_elevation	scapula_upward_rot	scapula_winging	plane_elv	shoulder_elv	axial_rot	
          1.37000000	        -23.91349768	         15.65266293	        -11.73892261	          6.68310558	         29.97128213	         -1.09992624	          9.26111408	         -0.00434129	         30.99855715	
          1.38000000	        -24.03694802	         15.74423894	        -11.94543650	          6.72036382	         30.07017327	         -1.12942057	         10.27675328	         -0.01742242	         30.05606305	
          1.39000000	        -24.13329202	         15.82365410	        -12.09988692	          6.75210659	         30.16149863	         -1.15655033	         11.27646256	         -0.02022212	         29.12113036	
          1.40000000	        -24.20591558	         15.89104598	        -12.20914327	          6.77836263	         30.24470904	         -1.18112414	         12.26750589	         -0.01370548	         28.18890069	
          1.41000000	        -24.25863611	         15.94709329	        -12.28079929	          6.79941006	         30.31976094	         -1.20313369	         13.25670627	          0.00120298	         27.25489074	
          1.42000000	        -24.29532696	         15.99286346	        -12.32246077	          6.81571154	         30.38701553	         -1.22271509	         14.25004138	          0.02361577	         26.31536924	
          1.43000000	        -24.31965628	         16.02966512	        -12.34126071	          6.82784919	         30.44712469	         -1.24010612	         15.25229336	          0.05267277	         25.36767941	
          1.44000000	        -24.33492146	         16.05891739	        -12.34356134	          6.83646561	         30.50091951	         -1.25560482	         16.26677002	          0.08752814	         24.41048875	
          1.45000000	        -24.34395921	         16.08204303	        -12.33480148	          6.84221477	         30.54931148	         -1.26953298	         17.29511088	          0.12733702	         23.44395148	
          1.46000000	        -24.34911252	         16.10038820	        -12.31945104	          6.84572446	         30.59321238	         -1.28220685	         18.33718724	          0.17124486	         22.46977457	
          1.47000000	        -24.35223817	         16.11516865	        -12.30104022	          6.84757060	         30.63347515	         -1.29391551	         19.39109895	          0.21838171	         21.49118469	
          1.48000000	        -24.35474137	         16.12743984	        -12.28223715	          6.84826257	         30.67085525	         -1.30490696	         20.45326405	          0.26786267	         20.51280085	
          1.49000000	        -24.35762676	         16.13808699	        -12.26495365	          6.84823769	         30.70599035	         -1.31538095	         21.51859040	          0.31879487	         19.54042547	
          1.50000000	        -24.36155789	         16.14783072	        -12.25046383	          6.84786306	         30.73939507	         -1.32548728	         22.58071291	          0.37029028	         18.58077283	
          1.51000000	        -24.36691897	         16.15724334	        -12.23952465	          6.84744231	         30.77146679	         -1.33532834	         23.63227612	          0.42148276	         17.64115826	
          1.52000000	        -24.37387466	         16.16677124	        -12.23249051	          6.84722521	         30.80249894	         -1.34496434	         24.66524010	          0.47154766	         16.72917371	
          1.53000000	        -24.38242490	         16.17675958	        -12.22941693	          6.84741831	         30.83269810	         -1.35442016	         25.67118781	          0.51972156	         15.85237442	
          1.54000000	        -24.39245305	         16.18747579	        -12.23015006	          6.84819490	         30.86220203	         -1.36369278	         26.64161440	          0.56532047	         15.01799878	
